<svg width="18" height="18" viewBox="0 0 18 18" fill="none" xmlns="http://www.w3.org/2000/svg">
    <path d="M8.16671 15.5C9.79377 15.4997 11.3739 14.955 12.6556 13.9527L16.6853 17.9823L17.9815 16.6862L13.9518 12.6565C14.9546 11.3747 15.4997 9.79415 15.5 8.16666C15.5 4.12325 12.2101 0.833332 8.16671 0.833332C4.12329 0.833332 0.833374 4.12325 0.833374 8.16666C0.833374 12.2101 4.12329 15.5 8.16671 15.5ZM8.16671 2.66667C11.2 2.66667 13.6667 5.13341 13.6667 8.16666C13.6667 11.1999 11.2 13.6667 8.16671 13.6667C5.13346 13.6667 2.66671 11.1999 2.66671 8.16666C2.66671 5.13341 5.13346 2.66667 8.16671 2.66667Z" fill="#262626"/>
</svg>
